# xmcd
#
# Track frame offsets:
#	150
#	11016
#	24015
#	41210
#	52337
#	69312
#	80351
#	92069
#	109465
#	124783
#	141592
#	155786
#	166273
#	179753
#
# Disc length: 2532 seconds
#
# Revision: 1
# Processed by: cddbd v1.5.2PL0 Copyright (c) Steve Scherf et al.
# Submitted via: audiograbber 1.83.01
#
DISCID=c809e20e
DTITLE=Shunie Crampsey - Kick The Habit
DYEAR=1900
DGENRE=
TTITLE0=Waltz Across Texas
TTITLE1=The Hard Times That Lovin' Can Bring
TTITLE2=Loved Ones Goodbye
TTITLE3=3am
TTITLE4=There's A Mother Always Waiting
TTITLE5=Precious Memories
TTITLE6=The Old Lamplighter
TTITLE7=Kick The Habit
TTITLE8=Morning Sun And Memories
TTITLE9=I Wish It Would Rain
TTITLE10=The Cottage On The Borderline
TTITLE11=Barbara Joy
TTITLE12=As Far As You're Concerned
TTITLE13=I Feel So Lonesome Tonight
EXTD=
EXTT0=
EXTT1=
EXTT2=
EXTT3=
EXTT4=
EXTT5=
EXTT6=
EXTT7=
EXTT8=
EXTT9=
EXTT10=
EXTT11=
EXTT12=
EXTT13=
PLAYORDER=
